<svg width="522" height="235" viewBox="0 0 522 235" fill="none" xmlns="http://www.w3.org/2000/svg">
<path d="M521.709 153.743L175.442 0L0 81.7191L343.497 235L521.709 153.743Z" fill="url(#paint0_linear_74_204)" fill-opacity="0.6"/>
<path d="M213.71 106.545H211.307C211.29 106.347 211.244 106.166 211.17 106.004C211.099 105.842 211 105.703 210.872 105.587C210.747 105.467 210.595 105.376 210.416 105.314C210.237 105.249 210.034 105.216 209.807 105.216C209.409 105.216 209.072 105.312 208.797 105.506C208.524 105.699 208.317 105.976 208.175 106.337C208.036 106.697 207.966 107.131 207.966 107.636C207.966 108.17 208.037 108.618 208.179 108.979C208.324 109.337 208.533 109.607 208.805 109.788C209.078 109.967 209.406 110.057 209.79 110.057C210.009 110.057 210.205 110.03 210.378 109.976C210.551 109.919 210.702 109.838 210.83 109.733C210.957 109.628 211.061 109.501 211.141 109.354C211.223 109.203 211.278 109.034 211.307 108.847L213.71 108.864C213.682 109.233 213.578 109.609 213.399 109.993C213.22 110.374 212.966 110.726 212.636 111.05C212.31 111.371 211.905 111.629 211.422 111.825C210.939 112.021 210.378 112.119 209.739 112.119C208.938 112.119 208.219 111.947 207.582 111.604C206.949 111.26 206.447 110.754 206.078 110.087C205.712 109.419 205.528 108.602 205.528 107.636C205.528 106.665 205.716 105.847 206.091 105.182C206.466 104.514 206.972 104.01 207.608 103.669C208.244 103.325 208.955 103.153 209.739 103.153C210.29 103.153 210.797 103.229 211.26 103.379C211.723 103.53 212.129 103.75 212.479 104.04C212.828 104.327 213.109 104.68 213.322 105.101C213.536 105.521 213.665 106.003 213.71 106.545ZM216.643 112.102C216.225 112.102 215.856 112.034 215.535 111.898C215.217 111.759 214.967 111.548 214.785 111.267C214.603 110.986 214.512 110.628 214.512 110.193C214.512 109.835 214.574 109.53 214.696 109.277C214.818 109.021 214.988 108.812 215.207 108.651C215.426 108.489 215.68 108.365 215.97 108.28C216.262 108.195 216.578 108.139 216.916 108.114C217.282 108.085 217.576 108.051 217.798 108.011C218.022 107.969 218.184 107.911 218.284 107.837C218.383 107.76 218.433 107.659 218.433 107.534V107.517C218.433 107.347 218.368 107.216 218.237 107.125C218.106 107.034 217.939 106.989 217.734 106.989C217.51 106.989 217.326 107.038 217.184 107.138C217.045 107.234 216.961 107.384 216.933 107.585H214.768C214.797 107.187 214.923 106.821 215.147 106.486C215.375 106.148 215.706 105.878 216.14 105.676C216.575 105.472 217.118 105.369 217.768 105.369C218.237 105.369 218.657 105.425 219.029 105.536C219.402 105.643 219.718 105.795 219.98 105.991C220.241 106.185 220.44 106.412 220.576 106.673C220.716 106.932 220.785 107.213 220.785 107.517V112H218.586V111.08H218.535C218.404 111.324 218.245 111.521 218.058 111.672C217.873 111.822 217.662 111.932 217.423 112C217.187 112.068 216.927 112.102 216.643 112.102ZM217.41 110.619C217.589 110.619 217.757 110.582 217.913 110.509C218.072 110.435 218.201 110.328 218.301 110.189C218.4 110.05 218.45 109.881 218.45 109.682V109.136C218.387 109.162 218.321 109.186 218.25 109.209C218.181 109.232 218.108 109.253 218.028 109.273C217.951 109.293 217.869 109.311 217.781 109.328C217.696 109.345 217.606 109.361 217.512 109.375C217.331 109.403 217.181 109.45 217.065 109.516C216.951 109.578 216.866 109.656 216.809 109.75C216.755 109.841 216.728 109.943 216.728 110.057C216.728 110.239 216.792 110.378 216.92 110.474C217.048 110.571 217.211 110.619 217.41 110.619ZM221.909 112V105.455H224.142V106.699H224.21C224.347 106.29 224.58 105.966 224.909 105.727C225.239 105.489 225.631 105.369 226.085 105.369C226.545 105.369 226.942 105.491 227.274 105.736C227.607 105.977 227.807 106.298 227.875 106.699H227.943C228.054 106.298 228.29 105.977 228.651 105.736C229.011 105.491 229.435 105.369 229.92 105.369C230.548 105.369 231.057 105.571 231.446 105.974C231.838 106.378 232.034 106.915 232.034 107.585V112H229.682V108.182C229.682 107.895 229.609 107.67 229.464 107.509C229.32 107.344 229.125 107.261 228.881 107.261C228.639 107.261 228.447 107.344 228.305 107.509C228.166 107.67 228.097 107.895 228.097 108.182V112H225.847V108.182C225.847 107.895 225.774 107.67 225.629 107.509C225.484 107.344 225.29 107.261 225.045 107.261C224.884 107.261 224.744 107.298 224.628 107.372C224.511 107.446 224.42 107.553 224.355 107.692C224.293 107.828 224.261 107.991 224.261 108.182V112H221.909ZM233.194 114.455V105.455H235.529V106.597H235.581C235.666 106.375 235.791 106.172 235.956 105.987C236.12 105.8 236.325 105.651 236.569 105.54C236.814 105.426 237.098 105.369 237.422 105.369C237.853 105.369 238.264 105.484 238.653 105.714C239.045 105.945 239.363 106.307 239.608 106.801C239.855 107.295 239.978 107.937 239.978 108.727C239.978 109.483 239.86 110.109 239.625 110.607C239.392 111.104 239.079 111.474 238.687 111.719C238.298 111.963 237.87 112.085 237.404 112.085C237.098 112.085 236.824 112.036 236.582 111.936C236.343 111.834 236.139 111.696 235.968 111.523C235.801 111.347 235.672 111.148 235.581 110.926H235.547V114.455H233.194ZM235.495 108.727C235.495 109.045 235.537 109.321 235.619 109.554C235.704 109.784 235.824 109.963 235.977 110.091C236.133 110.216 236.319 110.278 236.535 110.278C236.751 110.278 236.934 110.217 237.085 110.095C237.238 109.97 237.355 109.793 237.434 109.562C237.517 109.33 237.558 109.051 237.558 108.727C237.558 108.403 237.517 108.126 237.434 107.896C237.355 107.663 237.238 107.486 237.085 107.364C236.934 107.239 236.751 107.176 236.535 107.176C236.319 107.176 236.133 107.239 235.977 107.364C235.824 107.486 235.704 107.663 235.619 107.896C235.537 108.126 235.495 108.403 235.495 108.727ZM244.117 112.119C243.407 112.119 242.799 111.979 242.293 111.697C241.788 111.413 241.4 111.018 241.13 110.513C240.86 110.004 240.725 109.415 240.725 108.744C240.725 108.074 240.86 107.486 241.13 106.98C241.4 106.472 241.788 106.077 242.293 105.795C242.799 105.511 243.407 105.369 244.117 105.369C244.827 105.369 245.435 105.511 245.941 105.795C246.447 106.077 246.835 106.472 247.104 106.98C247.374 107.486 247.509 108.074 247.509 108.744C247.509 109.415 247.374 110.004 247.104 110.513C246.835 111.018 246.447 111.413 245.941 111.697C245.435 111.979 244.827 112.119 244.117 112.119ZM244.134 110.381C244.333 110.381 244.505 110.314 244.65 110.18C244.795 110.047 244.907 109.857 244.987 109.609C245.066 109.362 245.106 109.068 245.106 108.727C245.106 108.384 245.066 108.089 244.987 107.845C244.907 107.598 244.795 107.408 244.65 107.274C244.505 107.141 244.333 107.074 244.134 107.074C243.924 107.074 243.744 107.141 243.593 107.274C243.442 107.408 243.327 107.598 243.248 107.845C243.168 108.089 243.129 108.384 243.129 108.727C243.129 109.068 243.168 109.362 243.248 109.609C243.327 109.857 243.442 110.047 243.593 110.18C243.744 110.314 243.924 110.381 244.134 110.381ZM250.82 112V103.273H254.604C255.269 103.273 255.827 103.362 256.279 103.541C256.734 103.72 257.076 103.973 257.306 104.3C257.539 104.626 257.656 105.011 257.656 105.455C257.656 105.776 257.585 106.068 257.442 106.332C257.303 106.597 257.107 106.818 256.854 106.997C256.602 107.173 256.306 107.295 255.968 107.364V107.449C256.343 107.463 256.684 107.558 256.991 107.734C257.298 107.908 257.542 108.148 257.724 108.455C257.906 108.759 257.996 109.116 257.996 109.528C257.996 110.006 257.871 110.43 257.621 110.803C257.374 111.175 257.022 111.467 256.565 111.68C256.107 111.893 255.562 112 254.928 112H250.82ZM253.19 110.108H254.298C254.695 110.108 254.994 110.034 255.192 109.886C255.391 109.736 255.491 109.514 255.491 109.222C255.491 109.017 255.444 108.844 255.35 108.702C255.256 108.56 255.123 108.452 254.95 108.378C254.779 108.304 254.573 108.267 254.332 108.267H253.19V110.108ZM253.19 106.801H254.161C254.369 106.801 254.552 106.768 254.711 106.703C254.87 106.638 254.994 106.544 255.082 106.422C255.173 106.297 255.218 106.145 255.218 105.966C255.218 105.696 255.121 105.49 254.928 105.348C254.735 105.203 254.491 105.131 254.195 105.131H253.19V106.801ZM262.006 112.119C261.308 112.119 260.705 111.986 260.2 111.719C259.697 111.449 259.309 111.062 259.036 110.56C258.766 110.054 258.631 109.449 258.631 108.744C258.631 108.068 258.768 107.477 259.04 106.972C259.313 106.466 259.698 106.072 260.195 105.791C260.692 105.51 261.279 105.369 261.955 105.369C262.45 105.369 262.897 105.446 263.298 105.599C263.698 105.753 264.04 105.976 264.325 106.268C264.609 106.558 264.827 106.911 264.981 107.325C265.134 107.74 265.211 108.207 265.211 108.727V109.273H259.364V107.977H263.046C263.043 107.79 262.995 107.625 262.901 107.483C262.81 107.338 262.687 107.226 262.531 107.146C262.377 107.064 262.202 107.023 262.006 107.023C261.816 107.023 261.641 107.064 261.482 107.146C261.323 107.226 261.195 107.337 261.099 107.479C261.005 107.621 260.955 107.787 260.95 107.977V109.375C260.95 109.585 260.994 109.773 261.082 109.938C261.17 110.102 261.296 110.232 261.461 110.325C261.626 110.419 261.825 110.466 262.058 110.466C262.219 110.466 262.367 110.443 262.501 110.398C262.637 110.352 262.754 110.287 262.85 110.202C262.947 110.114 263.018 110.009 263.063 109.886H265.211C265.137 110.341 264.962 110.736 264.687 111.071C264.411 111.403 264.046 111.662 263.592 111.847C263.14 112.028 262.612 112.119 262.006 112.119ZM261.137 104.636L261.955 102.727H263.967L262.688 104.636H261.137ZM266.171 112V105.455H268.523V112H266.171ZM267.347 104.773C267.029 104.773 266.756 104.668 266.529 104.457C266.301 104.247 266.188 103.994 266.188 103.699C266.188 103.403 266.301 103.151 266.529 102.94C266.756 102.73 267.029 102.625 267.347 102.625C267.668 102.625 267.941 102.73 268.165 102.94C268.392 103.151 268.506 103.403 268.506 103.699C268.506 103.994 268.392 104.247 268.165 104.457C267.941 104.668 267.668 104.773 267.347 104.773ZM275.705 107.585H273.54C273.528 107.452 273.482 107.337 273.399 107.24C273.317 107.143 273.21 107.07 273.08 107.018C272.952 106.964 272.81 106.938 272.653 106.938C272.452 106.938 272.278 106.974 272.134 107.048C271.989 107.122 271.918 107.227 271.92 107.364C271.918 107.46 271.959 107.55 272.044 107.632C272.132 107.714 272.301 107.778 272.551 107.824L273.881 108.062C274.551 108.185 275.05 108.391 275.376 108.68C275.706 108.967 275.872 109.352 275.875 109.835C275.872 110.301 275.733 110.706 275.457 111.05C275.185 111.391 274.811 111.655 274.337 111.842C273.865 112.027 273.327 112.119 272.722 112.119C271.722 112.119 270.939 111.915 270.374 111.506C269.811 111.097 269.497 110.557 269.432 109.886H271.767C271.798 110.094 271.901 110.254 272.074 110.368C272.25 110.479 272.472 110.534 272.739 110.534C272.955 110.534 273.132 110.497 273.271 110.423C273.413 110.349 273.486 110.244 273.489 110.108C273.486 109.983 273.423 109.884 273.301 109.81C273.182 109.736 272.994 109.676 272.739 109.631L271.58 109.426C270.912 109.31 270.412 109.088 270.08 108.761C269.747 108.435 269.582 108.014 269.585 107.5C269.582 107.045 269.702 106.661 269.943 106.345C270.188 106.027 270.536 105.786 270.987 105.621C271.442 105.453 271.98 105.369 272.602 105.369C273.548 105.369 274.294 105.565 274.839 105.957C275.388 106.349 275.676 106.892 275.705 107.585ZM276.742 112V103.273H279.094V106.597H279.129C279.214 106.375 279.339 106.172 279.504 105.987C279.668 105.8 279.873 105.651 280.117 105.54C280.362 105.426 280.646 105.369 280.969 105.369C281.401 105.369 281.812 105.484 282.201 105.714C282.593 105.945 282.911 106.307 283.156 106.801C283.403 107.295 283.526 107.937 283.526 108.727C283.526 109.483 283.408 110.109 283.173 110.607C282.94 111.104 282.627 111.474 282.235 111.719C281.846 111.963 281.418 112.085 280.952 112.085C280.646 112.085 280.371 112.036 280.13 111.936C279.891 111.834 279.687 111.696 279.516 111.523C279.349 111.347 279.219 111.148 279.129 110.926H279.077V112H276.742ZM279.043 108.727C279.043 109.045 279.085 109.321 279.167 109.554C279.252 109.784 279.371 109.963 279.525 110.091C279.681 110.216 279.867 110.278 280.083 110.278C280.299 110.278 280.482 110.217 280.633 110.095C280.786 109.97 280.903 109.793 280.982 109.562C281.065 109.33 281.106 109.051 281.106 108.727C281.106 108.403 281.065 108.126 280.982 107.896C280.903 107.663 280.786 107.486 280.633 107.364C280.482 107.239 280.299 107.176 280.083 107.176C279.867 107.176 279.681 107.239 279.525 107.364C279.371 107.486 279.252 107.663 279.167 107.896C279.085 108.126 279.043 108.403 279.043 108.727ZM287.664 112.119C286.954 112.119 286.346 111.979 285.84 111.697C285.335 111.413 284.947 111.018 284.677 110.513C284.407 110.004 284.272 109.415 284.272 108.744C284.272 108.074 284.407 107.486 284.677 106.98C284.947 106.472 285.335 106.077 285.84 105.795C286.346 105.511 286.954 105.369 287.664 105.369C288.374 105.369 288.982 105.511 289.488 105.795C289.994 106.077 290.381 106.472 290.651 106.98C290.921 107.486 291.056 108.074 291.056 108.744C291.056 109.415 290.921 110.004 290.651 110.513C290.381 111.018 289.994 111.413 289.488 111.697C288.982 111.979 288.374 112.119 287.664 112.119ZM287.681 110.381C287.88 110.381 288.052 110.314 288.197 110.18C288.342 110.047 288.454 109.857 288.533 109.609C288.613 109.362 288.653 109.068 288.653 108.727C288.653 108.384 288.613 108.089 288.533 107.845C288.454 107.598 288.342 107.408 288.197 107.274C288.052 107.141 287.88 107.074 287.681 107.074C287.471 107.074 287.29 107.141 287.14 107.274C286.989 107.408 286.874 107.598 286.795 107.845C286.715 108.089 286.675 108.384 286.675 108.727C286.675 109.068 286.715 109.362 286.795 109.609C286.874 109.857 286.989 110.047 287.14 110.18C287.29 110.314 287.471 110.381 287.681 110.381ZM294.363 103.273V112H292.011V103.273H294.363Z" fill="white" fill-opacity="0.24"/>
<defs>
<linearGradient id="paint0_linear_74_204" x1="260.855" y1="0" x2="260.855" y2="235" gradientUnits="userSpaceOnUse">
<stop stop-color="#00B506" stop-opacity="0.06"/>
<stop offset="1" stop-color="#00FF08" stop-opacity="0.29"/>
</linearGradient>
</defs>
</svg>
