<svg width="107" height="78" viewBox="0 0 107 78" fill="none" xmlns="http://www.w3.org/2000/svg">
<path d="M1 35.5062L76.9317 1.5L106.279 15.4752V29.4503L76.9317 42.2716L92.3043 48.0839V62.9907L62.0248 76.5L1 50.413V35.5062Z" fill="url(#paint0_linear_33_1102)"/>
<path d="M1 35.5062L76.9317 1.5L106.279 15.4752M1 35.5062L62.0248 62.9907M1 35.5062V50.413L62.0248 76.5M62.0248 62.9907V76.5M62.0248 62.9907L92.3043 48.0839M62.0248 76.5L92.3043 62.9907V48.0839M92.3043 48.0839L76.9317 42.2716M106.279 15.4752L62.0248 35.5062L76.9317 42.2716M106.279 15.4752V29.4503L76.9317 42.2716" stroke="url(#paint1_linear_33_1102)"/>
<defs>
<linearGradient id="paint0_linear_33_1102" x1="53.6397" y1="1.5" x2="53.6397" y2="76.5" gradientUnits="userSpaceOnUse">
<stop stop-color="#424242" stop-opacity="0.09"/>
<stop offset="1" stop-color="#A8A8A8" stop-opacity="0.29"/>
</linearGradient>
<linearGradient id="paint1_linear_33_1102" x1="53.6397" y1="1.5" x2="53.6397" y2="76.5" gradientUnits="userSpaceOnUse">
<stop stop-color="#383838"/>
<stop offset="1" stop-color="#666666"/>
</linearGradient>
</defs>
</svg>
