<svg width="523" height="236" viewBox="0 0 523 236" fill="none" xmlns="http://www.w3.org/2000/svg">
<path d="M522.286 153.909L176.223 0.256958L0.88501 81.9277L344.179 235.118L522.286 153.909Z" fill="url(#paint0_linear_38_276)" fill-opacity="0.6"/>
<ellipse cx="247.051" cy="104.076" rx="30.2228" ry="13.3811" fill="url(#paint1_linear_38_276)"/>
<path d="M276.774 104.076C276.774 105.76 276.005 107.402 274.537 108.939C273.067 110.478 270.916 111.886 268.219 113.08C262.827 115.468 255.344 116.957 247.051 116.957C238.758 116.957 231.274 115.468 225.883 113.08C223.186 111.886 221.035 110.478 219.565 108.939C218.097 107.402 217.328 105.76 217.328 104.076C217.328 102.391 218.097 100.749 219.565 99.2125C221.035 97.6736 223.186 96.2649 225.883 95.071C231.274 92.6838 238.758 91.1946 247.051 91.1946C255.344 91.1946 262.827 92.6838 268.219 95.071C270.916 96.2649 273.067 97.6736 274.537 99.2125C276.005 100.749 276.774 102.391 276.774 104.076Z" stroke="url(#paint2_linear_38_276)" stroke-opacity="0.15"/>
<path d="M491.567 167.883C476.035 161.003 454.968 157.139 433.002 157.139C411.035 157.139 389.969 161.003 374.436 167.883C358.904 174.762 350.177 184.092 350.177 193.821C350.177 203.55 358.904 212.881 374.436 219.76L433.002 193.821L491.567 167.883Z" fill="url(#paint3_linear_38_276)"/>
<path d="M31.6116 66.1081C47.1494 72.9874 68.2232 76.8522 90.1969 76.8522C112.171 76.8522 133.244 72.9874 148.782 66.1081C164.32 59.2288 173.049 49.8984 173.049 40.1695C173.049 30.4407 164.32 21.1103 148.782 14.231L90.1969 40.1695L31.6116 66.1081Z" fill="url(#paint4_linear_38_276)"/>
<path d="M154 146.5C160.824 142.811 273.654 91.6297 329.216 66.5" stroke="url(#paint5_linear_38_276)"/>
<path d="M272.71 140.545H270.307C270.29 140.347 270.244 140.166 270.17 140.004C270.099 139.842 270 139.703 269.872 139.587C269.747 139.467 269.595 139.376 269.416 139.314C269.237 139.249 269.034 139.216 268.807 139.216C268.409 139.216 268.072 139.312 267.797 139.506C267.524 139.699 267.317 139.976 267.175 140.337C267.036 140.697 266.966 141.131 266.966 141.636C266.966 142.17 267.037 142.618 267.179 142.979C267.324 143.337 267.533 143.607 267.805 143.788C268.078 143.967 268.406 144.057 268.79 144.057C269.009 144.057 269.205 144.03 269.378 143.976C269.551 143.919 269.702 143.838 269.83 143.733C269.957 143.628 270.061 143.501 270.141 143.354C270.223 143.203 270.278 143.034 270.307 142.847L272.71 142.864C272.682 143.233 272.578 143.609 272.399 143.993C272.22 144.374 271.966 144.726 271.636 145.05C271.31 145.371 270.905 145.629 270.422 145.825C269.939 146.021 269.378 146.119 268.739 146.119C267.938 146.119 267.219 145.947 266.582 145.604C265.949 145.26 265.447 144.754 265.078 144.087C264.712 143.419 264.528 142.602 264.528 141.636C264.528 140.665 264.716 139.847 265.091 139.182C265.466 138.514 265.972 138.01 266.608 137.669C267.244 137.325 267.955 137.153 268.739 137.153C269.29 137.153 269.797 137.229 270.26 137.379C270.723 137.53 271.129 137.75 271.479 138.04C271.828 138.327 272.109 138.68 272.322 139.101C272.536 139.521 272.665 140.003 272.71 140.545ZM275.643 146.102C275.225 146.102 274.856 146.034 274.535 145.898C274.217 145.759 273.967 145.548 273.785 145.267C273.603 144.986 273.512 144.628 273.512 144.193C273.512 143.835 273.574 143.53 273.696 143.277C273.818 143.021 273.988 142.812 274.207 142.651C274.426 142.489 274.68 142.365 274.97 142.28C275.262 142.195 275.578 142.139 275.916 142.114C276.282 142.085 276.576 142.051 276.798 142.011C277.022 141.969 277.184 141.911 277.284 141.837C277.383 141.76 277.433 141.659 277.433 141.534V141.517C277.433 141.347 277.368 141.216 277.237 141.125C277.106 141.034 276.939 140.989 276.734 140.989C276.51 140.989 276.326 141.038 276.184 141.138C276.045 141.234 275.961 141.384 275.933 141.585H273.768C273.797 141.187 273.923 140.821 274.147 140.486C274.375 140.148 274.706 139.878 275.14 139.676C275.575 139.472 276.118 139.369 276.768 139.369C277.237 139.369 277.657 139.425 278.029 139.536C278.402 139.643 278.718 139.795 278.98 139.991C279.241 140.185 279.44 140.412 279.576 140.673C279.716 140.932 279.785 141.213 279.785 141.517V146H277.586V145.08H277.535C277.404 145.324 277.245 145.521 277.058 145.672C276.873 145.822 276.662 145.932 276.423 146C276.187 146.068 275.927 146.102 275.643 146.102ZM276.41 144.619C276.589 144.619 276.757 144.582 276.913 144.509C277.072 144.435 277.201 144.328 277.301 144.189C277.4 144.05 277.45 143.881 277.45 143.682V143.136C277.387 143.162 277.321 143.186 277.25 143.209C277.181 143.232 277.108 143.253 277.028 143.273C276.951 143.293 276.869 143.311 276.781 143.328C276.696 143.345 276.606 143.361 276.512 143.375C276.331 143.403 276.181 143.45 276.065 143.516C275.951 143.578 275.866 143.656 275.809 143.75C275.755 143.841 275.728 143.943 275.728 144.057C275.728 144.239 275.792 144.378 275.92 144.474C276.048 144.571 276.211 144.619 276.41 144.619ZM280.909 146V139.455H283.142V140.699H283.21C283.347 140.29 283.58 139.966 283.909 139.727C284.239 139.489 284.631 139.369 285.085 139.369C285.545 139.369 285.942 139.491 286.274 139.736C286.607 139.977 286.807 140.298 286.875 140.699H286.943C287.054 140.298 287.29 139.977 287.651 139.736C288.011 139.491 288.435 139.369 288.92 139.369C289.548 139.369 290.057 139.571 290.446 139.974C290.838 140.378 291.034 140.915 291.034 141.585V146H288.682V142.182C288.682 141.895 288.609 141.67 288.464 141.509C288.32 141.344 288.125 141.261 287.881 141.261C287.639 141.261 287.447 141.344 287.305 141.509C287.166 141.67 287.097 141.895 287.097 142.182V146H284.847V142.182C284.847 141.895 284.774 141.67 284.629 141.509C284.484 141.344 284.29 141.261 284.045 141.261C283.884 141.261 283.744 141.298 283.628 141.372C283.511 141.446 283.42 141.553 283.355 141.692C283.293 141.828 283.261 141.991 283.261 142.182V146H280.909ZM292.194 148.455V139.455H294.529V140.597H294.581C294.666 140.375 294.791 140.172 294.956 139.987C295.12 139.8 295.325 139.651 295.569 139.54C295.814 139.426 296.098 139.369 296.422 139.369C296.853 139.369 297.264 139.484 297.653 139.714C298.045 139.945 298.363 140.307 298.608 140.801C298.855 141.295 298.978 141.937 298.978 142.727C298.978 143.483 298.86 144.109 298.625 144.607C298.392 145.104 298.079 145.474 297.687 145.719C297.298 145.963 296.87 146.085 296.404 146.085C296.098 146.085 295.824 146.036 295.582 145.936C295.343 145.834 295.139 145.696 294.968 145.523C294.801 145.347 294.672 145.148 294.581 144.926H294.547V148.455H292.194ZM294.495 142.727C294.495 143.045 294.537 143.321 294.619 143.554C294.704 143.784 294.824 143.963 294.977 144.091C295.133 144.216 295.319 144.278 295.535 144.278C295.751 144.278 295.934 144.217 296.085 144.095C296.238 143.97 296.355 143.793 296.434 143.562C296.517 143.33 296.558 143.051 296.558 142.727C296.558 142.403 296.517 142.126 296.434 141.896C296.355 141.663 296.238 141.486 296.085 141.364C295.934 141.239 295.751 141.176 295.535 141.176C295.319 141.176 295.133 141.239 294.977 141.364C294.824 141.486 294.704 141.663 294.619 141.896C294.537 142.126 294.495 142.403 294.495 142.727ZM303.117 146.119C302.407 146.119 301.799 145.979 301.293 145.697C300.788 145.413 300.4 145.018 300.13 144.513C299.86 144.004 299.725 143.415 299.725 142.744C299.725 142.074 299.86 141.486 300.13 140.98C300.4 140.472 300.788 140.077 301.293 139.795C301.799 139.511 302.407 139.369 303.117 139.369C303.827 139.369 304.435 139.511 304.941 139.795C305.447 140.077 305.835 140.472 306.104 140.98C306.374 141.486 306.509 142.074 306.509 142.744C306.509 143.415 306.374 144.004 306.104 144.513C305.835 145.018 305.447 145.413 304.941 145.697C304.435 145.979 303.827 146.119 303.117 146.119ZM303.134 144.381C303.333 144.381 303.505 144.314 303.65 144.18C303.795 144.047 303.907 143.857 303.987 143.609C304.066 143.362 304.106 143.068 304.106 142.727C304.106 142.384 304.066 142.089 303.987 141.845C303.907 141.598 303.795 141.408 303.65 141.274C303.505 141.141 303.333 141.074 303.134 141.074C302.924 141.074 302.744 141.141 302.593 141.274C302.442 141.408 302.327 141.598 302.248 141.845C302.168 142.089 302.129 142.384 302.129 142.727C302.129 143.068 302.168 143.362 302.248 143.609C302.327 143.857 302.442 144.047 302.593 144.18C302.744 144.314 302.924 144.381 303.134 144.381ZM309.82 146V137.273H315.957V139.182H312.19V140.682H315.582V142.591H312.19V146H309.82ZM320.696 143.136V139.455H323.049V146H320.816V144.756H320.748C320.605 145.173 320.357 145.5 320.002 145.736C319.647 145.969 319.225 146.085 318.736 146.085C318.279 146.085 317.878 145.98 317.534 145.77C317.194 145.56 316.928 145.27 316.738 144.901C316.55 144.531 316.455 144.108 316.452 143.631V139.455H318.804V143.136C318.807 143.46 318.89 143.714 319.051 143.899C319.216 144.084 319.446 144.176 319.742 144.176C319.938 144.176 320.107 144.135 320.249 144.053C320.394 143.967 320.505 143.848 320.581 143.695C320.661 143.538 320.699 143.352 320.696 143.136ZM318.975 138.636L319.793 136.727H321.804L320.526 138.636H318.975ZM328.148 139.455V141.159H323.836V139.455H328.148ZM324.671 137.886H327.023V143.895C327.023 143.986 327.039 144.062 327.07 144.125C327.102 144.185 327.15 144.23 327.215 144.261C327.281 144.29 327.364 144.304 327.467 144.304C327.538 144.304 327.62 144.295 327.714 144.278C327.81 144.261 327.881 144.247 327.927 144.236L328.268 145.889C328.163 145.92 328.012 145.959 327.816 146.004C327.623 146.05 327.393 146.08 327.126 146.094C326.586 146.122 326.133 146.067 325.766 145.928C325.4 145.786 325.124 145.562 324.94 145.259C324.755 144.955 324.665 144.574 324.671 144.116V137.886ZM329.215 146V137.273H331.567V140.597H331.601C331.686 140.375 331.811 140.172 331.976 139.987C332.141 139.8 332.346 139.651 332.59 139.54C332.834 139.426 333.118 139.369 333.442 139.369C333.874 139.369 334.284 139.484 334.674 139.714C335.066 139.945 335.384 140.307 335.628 140.801C335.875 141.295 335.999 141.937 335.999 142.727C335.999 143.483 335.881 144.109 335.645 144.607C335.412 145.104 335.1 145.474 334.708 145.719C334.319 145.963 333.891 146.085 333.425 146.085C333.118 146.085 332.844 146.036 332.603 145.936C332.364 145.834 332.159 145.696 331.989 145.523C331.821 145.347 331.692 145.148 331.601 144.926H331.55V146H329.215ZM331.516 142.727C331.516 143.045 331.557 143.321 331.64 143.554C331.725 143.784 331.844 143.963 331.998 144.091C332.154 144.216 332.34 144.278 332.556 144.278C332.772 144.278 332.955 144.217 333.105 144.095C333.259 143.97 333.375 143.793 333.455 143.562C333.537 143.33 333.578 143.051 333.578 142.727C333.578 142.403 333.537 142.126 333.455 141.896C333.375 141.663 333.259 141.486 333.105 141.364C332.955 141.239 332.772 141.176 332.556 141.176C332.34 141.176 332.154 141.239 331.998 141.364C331.844 141.486 331.725 141.663 331.64 141.896C331.557 142.126 331.516 142.403 331.516 142.727ZM340.137 146.119C339.426 146.119 338.819 145.979 338.313 145.697C337.807 145.413 337.419 145.018 337.15 144.513C336.88 144.004 336.745 143.415 336.745 142.744C336.745 142.074 336.88 141.486 337.15 140.98C337.419 140.472 337.807 140.077 338.313 139.795C338.819 139.511 339.426 139.369 340.137 139.369C340.847 139.369 341.455 139.511 341.961 139.795C342.466 140.077 342.854 140.472 343.124 140.98C343.394 141.486 343.529 142.074 343.529 142.744C343.529 143.415 343.394 144.004 343.124 144.513C342.854 145.018 342.466 145.413 341.961 145.697C341.455 145.979 340.847 146.119 340.137 146.119ZM340.154 144.381C340.353 144.381 340.525 144.314 340.669 144.18C340.814 144.047 340.926 143.857 341.006 143.609C341.086 143.362 341.125 143.068 341.125 142.727C341.125 142.384 341.086 142.089 341.006 141.845C340.926 141.598 340.814 141.408 340.669 141.274C340.525 141.141 340.353 141.074 340.154 141.074C339.944 141.074 339.763 141.141 339.613 141.274C339.462 141.408 339.347 141.598 339.267 141.845C339.188 142.089 339.148 142.384 339.148 142.727C339.148 143.068 339.188 143.362 339.267 143.609C339.347 143.857 339.462 144.047 339.613 144.18C339.763 144.314 339.944 144.381 340.154 144.381ZM346.836 137.273V146H344.483V137.273H346.836Z" fill="white" fill-opacity="0.24"/>
<defs>
<linearGradient id="paint0_linear_38_276" x1="261.585" y1="0.256958" x2="261.585" y2="235.118" gradientUnits="userSpaceOnUse">
<stop stop-color="#00B506" stop-opacity="0.06"/>
<stop offset="1" stop-color="#00FF08" stop-opacity="0.29"/>
</linearGradient>
<linearGradient id="paint1_linear_38_276" x1="247.051" y1="90.6946" x2="247.051" y2="117.457" gradientUnits="userSpaceOnUse">
<stop stop-color="white" stop-opacity="0.29"/>
<stop offset="1" stop-color="#999999" stop-opacity="0.06"/>
</linearGradient>
<linearGradient id="paint2_linear_38_276" x1="247.051" y1="90.6946" x2="247.051" y2="117.457" gradientUnits="userSpaceOnUse">
<stop stop-color="#151515"/>
<stop offset="1" stop-color="#666666"/>
</linearGradient>
<linearGradient id="paint3_linear_38_276" x1="433.002" y1="157.139" x2="433.002" y2="230.504" gradientUnits="userSpaceOnUse">
<stop stop-color="white" stop-opacity="0.06"/>
<stop offset="1" stop-color="#999999" stop-opacity="0.29"/>
</linearGradient>
<linearGradient id="paint4_linear_38_276" x1="90.1969" y1="3.48692" x2="90.1969" y2="76.8522" gradientUnits="userSpaceOnUse">
<stop stop-color="white" stop-opacity="0.06"/>
<stop offset="1" stop-color="#999999" stop-opacity="0.29"/>
</linearGradient>
<linearGradient id="paint5_linear_38_276" x1="435.268" y1="156.414" x2="435.268" y2="236.414" gradientUnits="userSpaceOnUse">
<stop stop-color="white" stop-opacity="0.29"/>
<stop offset="1" stop-color="#666666" stop-opacity="0.06"/>
</linearGradient>
</defs>
</svg>
